<svg xmlns="http://www.w3.org/2000/svg" version="1.1" xmlns:xlink="http://www.w3.org/1999/xlink" width="2000" height="118" viewBox="0 0 2000 118"><svg xml:space="preserve" width="2000" height="118" data-version="2" data-id="lg_nLwGijy2ST40FQvl0m" viewBox="0 0 573 118" x="0" y="0"><rect width="100%" height="100%" fill="transparent"></rect><circle r="59.32" fill="#0080ff" transform="translate(63.3 59)scale(.9737)"></circle><path fill="#0080ff" d="M152.05 89.93h-9.9v-69.3h22.87q6.98 0 12.27 2.23 5.3 2.23 8.25 7.18 2.94 4.95 2.94 13.07 0 7.97-2.94 12.94-2.95 4.98-8.25 7.3-5.29 2.33-12.27 2.33h-12.97zm0-60.88v28.21h11.58q7.58 0 11.36-3.44 3.79-3.44 3.79-10.61 0-7.23-3.59-10.7-3.59-3.46-11.56-3.46z"></path><rect width="46.33" height="69.3" x="-23.16" y="-34.65" fill="none" rx="0" ry="0" transform="translate(165.81 55.78)"></rect><path fill="#0080ff" d="M206.4 89.93h-9.5V41.42h7.32l1.09 8.02q3.71-4.6 7.1-6.8 3.4-2.21 7.26-2.21 1.23 0 2.27.3l-.89 9.8q-.64-.15-1.36-.22-.72-.08-1.61-.08-3.86 0-7.1 1.71-3.24 1.71-4.58 3.74z"></path><rect width="25.04" height="49.5" x="-12.52" y="-24.75" fill="none" rx="0" ry="0" transform="translate(209.92 65.68)"></rect><path fill="#0080ff" d="M249.37 90.92q-7.63 0-13-3.39t-8.21-9.11q-2.85-5.71-2.85-12.74t2.85-12.75q2.84-5.72 8.21-9.11 5.37-3.39 13-3.39 7.57 0 12.97 3.39 5.39 3.39 8.24 9.11 2.84 5.72 2.84 12.75t-2.84 12.74q-2.85 5.72-8.24 9.11-5.4 3.39-12.97 3.39m0-7.92q7.22 0 11.08-4.58 3.87-4.57 3.87-12.74t-3.87-12.75q-3.86-4.58-11.08-4.58-7.18 0-11.07 4.58-3.88 4.58-3.88 12.75t3.88 12.74Q242.19 83 249.37 83"></path><rect width="48.11" height="50.49" x="-24.05" y="-25.25" fill="none" rx="0" ry="0" transform="translate(249.87 66.17)"></rect><path fill="#0080ff" d="M291.54 89.93h-8.91V41.42h6.93l1.78 9.31-3.36-1.58q4.55-4.91 8.86-6.81 4.3-1.91 9.06-1.91 3.56 0 6.85 1.17 3.29 1.16 5.94 4.06 2.65 2.89 4.23 8.04l-2.47-1.09q2.18-5.64 6.68-8.91 4.51-3.27 12.13-3.27 6.09 0 10.24 2.26 4.16 2.25 6.27 6.88 2.1 4.62 2.1 11.75v28.61h-8.91V61.42q0-6.83-2.67-9.95-2.68-3.12-8.71-3.12-4.26 0-6.84 1.32-2.57 1.31-3.88 3.39-1.31 2.07-1.73 4.4-.42 2.33-.42 4.36v28.11h-8.91V63.2q0-5.94-1.44-9.15-1.44-3.22-4.01-4.46-2.57-1.24-5.94-1.24-4.9 0-8.76 2.16-3.86 2.15-5.2 6.85l1.09-4.85z"></path><rect width="75.24" height="49.5" x="-37.62" y="-24.75" fill="none" rx="0" ry="0" transform="translate(320.75 65.68)"></rect><path fill="#0080ff" d="M380.74 90.92q-4.51 0-7.87-1.83-3.37-1.83-5.22-5-1.86-3.17-1.86-7.22 0-4.11 1.81-7.06 1.8-2.94 4.85-4.9 3.04-1.95 6.8-3.12 3.77-1.16 7.8-1.68 4.03-.52 7.75-.57 0-6.93-2.73-9.06-2.72-2.13-7.87-2.13-2.72 0-5.81.84-3.1.85-6.96 3.52l-1.28-7.23q2.92-2.23 7.27-3.64 4.36-1.41 9.16-1.41 6.14 0 9.9 2.16 3.76 2.15 5.49 7.25 1.74 5.1 1.74 13.86v9.9q0 3.46.32 5.72.32 2.25 1.48 3.36 1.17 1.12 3.74 1.12h.89l-1.38 7.12h-.7q-4.3 0-6.65-.84-2.36-.84-3.59-2.42-1.24-1.59-2.23-3.86-2.72 3.16-6.44 5.14-3.71 1.98-8.41 1.98m1.68-7.12q3.57 0 6.91-1.79 3.34-1.78 5.47-4.75V65.68q-7.08.25-11.46 1.38-4.38 1.14-6.41 3.42-2.03 2.28-2.03 5.89 0 3.91 2.1 5.67 2.11 1.76 5.42 1.76"></path><rect width="44.35" height="50.49" x="-22.18" y="-25.25" fill="none" rx="0" ry="0" transform="translate(388.46 66.17)"></rect><path fill="#0080ff" d="M425.88 89.93h-8.91V41.42h6.93l1.79 9.31-3.47-1.49q4.9-5.44 9.58-7.12 4.68-1.69 9.13-1.69 10.64 0 15.22 6.14t4.58 16.63v26.73h-8.91V63.2q0-7.72-2.87-11.28-2.87-3.57-9.8-3.57-4.9 0-8.99 2.16-4.08 2.15-5.37 6.85l1.09-5.44z"></path><rect width="43.76" height="49.5" x="-21.88" y="-24.75" fill="none" rx="0" ry="0" transform="translate(439.35 65.68)"></rect><path fill="#0080ff" d="M497.06 90.92h-8.01q-4.61 0-7.38-1.68-2.77-1.68-4.03-4.33-1.27-2.65-1.27-5.57V48.35h-8.31l.79-6.93h7.52V29.44l8.91-.89v12.87h12.77v6.93h-12.77V73.9q0 4.65.55 6.73.54 2.08 2.7 2.62 2.15.55 6.95.55h2.28z"></path><rect width="29.99" height="62.37" x="-14.99" y="-31.18" fill="none" rx="0" ry="0" transform="translate(483.56 60.23)"></rect><path fill="#0080ff" d="M514.59 89.93h-8.91V41.42h8.91zm0-59.4h-8.91v-9.9h8.91z"></path><rect width="8.91" height="69.3" x="-4.46" y="-34.65" fill="none" rx="0" ry="0" transform="translate(510.63 55.78)"></rect><path fill="#0080ff" d="M531.71 89.93h-9.99l16.92-24.15-16.53-24.36h10l12.18 19.21 11.18-19.21h10.4l-15.94 23.57 16.53 24.94h-10l-12.27-19.1z"></path><rect width="44.74" height="48.51" x="-22.37" y="-24.25" fill="none" rx="0" ry="0" transform="translate(544.59 66.17)"></rect><path fill="#fff" d="M58.21 80.61h-6.5v-45.5h15.01q4.59 0 8.06 1.46 3.48 1.47 5.41 4.72 1.94 3.25 1.94 8.58 0 5.23-1.94 8.5-1.93 3.26-5.41 4.79-3.47 1.53-8.06 1.53h-8.51zm0-39.97v18.52h7.6q4.98 0 7.46-2.26 2.49-2.26 2.49-6.97 0-4.74-2.36-7.02-2.35-2.27-7.59-2.27z" paint-order="stroke"></path><rect width="30.42" height="45.5" x="-15.21" y="-22.75" fill="none" rx="0" ry="0" transform="translate(67.42 58.36)"></rect></svg></svg>